<svg id="Capa_1" enable-background="new 0 0 512 512" height="512" viewBox="0 0 512 512" width="512" xmlns="http://www.w3.org/2000/svg"><g><path d="m136 276c11.046 0 20-8.954 20-20v-60h40v60c0 11.046 8.954 20 20 20s20-8.954 20-20v-120c0-33.084-26.916-60-60-60s-60 26.916-60 60v120c0 11.046 8.954 20 20 20zm40-160c11.028 0 20 8.972 20 20v20h-40v-20c0-11.028 8.972-20 20-20z"/><path d="m336 196c11.046 0 20-8.954 20-20v-20h20c11.046 0 20-8.954 20-20s-8.954-20-20-20h-20v-20c0-11.046-8.954-20-20-20s-20 8.954-20 20v20h-20c-11.046 0-20 8.954-20 20s8.954 20 20 20h20v20c0 11.046 8.954 20 20 20z"/><path d="m476 372v-352c0-11.046-8.954-20-20-20h-400c-11.046 0-20 8.954-20 20v472c0 11.046 8.954 20 20 20h280c5.391 0 10.524-2.25 14.143-5.858 10.863-10.864 119.033-119.029 120.065-120.072 3.822-3.858 5.792-9.09 5.792-14.07zm-160 100h-240v-432h360v312h-100c-11.046 0-20 8.954-20 20zm91.715-80-51.715 51.715v-51.715z"/><path d="m256 316h-120c-11.046 0-20 8.954-20 20s8.954 20 20 20h120c11.046 0 20-8.954 20-20s-8.954-20-20-20z"/><path d="m256 396h-120c-11.046 0-20 8.954-20 20s8.954 20 20 20h120c11.046 0 20-8.954 20-20s-8.954-20-20-20z"/></g></svg>