<svg height="368pt" viewBox="-27 0 368 368.64" width="368pt" xmlns="http://www.w3.org/2000/svg"><path d="m205.121094 157.011719v-150.183594h-95.574219v150.183594h-40.960937l88.746093 143.363281 88.746094-143.363281zm0 0" fill="#5c9eff"/><path d="m157.332031 307.199219c-2.367187 0-4.558593-1.222657-5.804687-3.234375l-88.746094-143.359375c-1.300781-2.105469-1.359375-4.753907-.160156-6.917969 1.207031-2.160156 3.492187-3.5 5.964844-3.5h34.132812v-143.359375c0-3.773437 3.054688-6.828125 6.828125-6.828125h95.574219c3.773437 0 6.824218 3.054688 6.824218 6.828125v143.359375h34.132813c2.476563 0 4.761719 1.339844 5.96875 3.503906 1.199219 2.164063 1.140625 4.808594-.160156 6.917969l-88.746094 143.359375c-1.246094 2.007812-3.441406 3.230469-5.808594 3.230469zm-76.492187-143.359375 76.492187 123.5625 76.492188-123.5625h-28.703125c-3.773438 0-6.828125-3.054688-6.828125-6.828125v-143.359375h-81.917969v143.359375c0 3.773437-3.054688 6.828125-6.828125 6.828125zm0 0" fill="#0e65e5"/><path d="m130.027344 81.921875c-3.773438 0-6.828125-3.058594-6.828125-6.828125v-47.785156c0-3.773438 3.054687-6.828125 6.828125-6.828125 3.773437 0 6.824218 3.054687 6.824218 6.828125v47.785156c0 3.769531-3.050781 6.828125-6.824218 6.828125zm0 0" fill="#0e65e5"/><path d="m48.109375 320.925781v-34.207031h-40.960937v75.09375h300.371093v-74.769531h-40.964843v33.882812zm0 0" fill="#d7e9ff"/><g fill="#0e65e5"><path d="m307.519531 368.640625h-300.371093c-3.773438 0-6.828126-3.058594-6.828126-6.828125v-75.09375c0-3.769531 3.054688-6.824219 6.828126-6.824219h40.957031c3.773437 0 6.828125 3.054688 6.828125 6.824219v27.378906h204.800781v-27.054687c0-3.769531 3.050781-6.828125 6.824219-6.828125h40.960937c3.773438 0 6.828125 3.058594 6.828125 6.828125v74.769531c0 3.769531-3.054687 6.828125-6.828125 6.828125zm-293.546875-13.652344h286.71875v-61.117187h-27.304687v27.050781c0 3.769531-3.054688 6.828125-6.828125 6.828125h-218.453125c-3.773438 0-6.824219-3.058594-6.824219-6.828125v-27.375h-27.308594zm0 0"/><path d="m7.148438 348.160156h300.371093v13.652344h-300.371093zm0 0" fill-rule="evenodd"/><path d="m307.519531 368.640625h-300.371093c-3.773438 0-6.828126-3.058594-6.828126-6.828125v-13.652344c0-3.769531 3.054688-6.828125 6.828126-6.828125h300.371093c3.773438 0 6.828125 3.058594 6.828125 6.828125v13.652344c0 3.769531-3.054687 6.828125-6.828125 6.828125zm-293.546875-13.652344h286.71875zm0 0"/></g><path d="m130.027344 191.148438c-3.773438 0-6.828125-3.058594-6.828125-6.828126v-27.308593c0-3.769531 3.054687-6.824219 6.828125-6.824219 3.773437 0 6.824218 3.054688 6.824218 6.824219v27.308593c0 3.769532-3.050781 6.828126-6.824218 6.828126zm0 0" fill="#fff"/><path d="m143.679688 177.492188h-27.304688c-3.773438 0-6.828125-3.054688-6.828125-6.824219s3.054687-6.828125 6.828125-6.828125h27.304688c3.773437 0 6.828124 3.058594 6.828124 6.828125s-3.054687 6.824219-6.828124 6.824219zm0 0" fill="#fff"/></svg>