<svg width="512" height="512" xmlns="http://www.w3.org/2000/svg" style="vector-effect: non-scaling-stroke;" enable-background="new 0 0 512 512">

 <g>
  <title>Layer 1</title>
  <g id="svg_1">
   <path id="svg_2" d="m136,276c11.046,0 20,-8.954 20,-20l0,-60l40,0l0,60c0,11.046 8.954,20 20,20s20,-8.954 20,-20l0,-120c0,-33.084 -26.916,-60 -60,-60s-60,26.916 -60,60l0,120c0,11.046 8.954,20 20,20zm40,-160c11.028,0 20,8.972 20,20l0,20l-40,0l0,-20c0,-11.028 8.972,-20 20,-20z"/>
   <path id="svg_3" d="m336,196c11.046,0 20,-8.954 20,-20l0,-20l20,0c11.046,0 20,-8.954 20,-20s-8.954,-20 -20,-20l-20,0l0,-20c0,-11.046 -8.954,-20 -20,-20s-20,8.954 -20,20l0,20l-20,0c-11.046,0 -20,8.954 -20,20s8.954,20 20,20l20,0l0,20c0,11.046 8.954,20 20,20z"/>
   <path id="svg_4" d="m476,372l0,-352c0,-11.046 -8.954,-20 -20,-20l-400,0c-11.046,0 -20,8.954 -20,20l0,472c0,11.046 8.954,20 20,20l280,0c5.391,0 10.524,-2.25 14.143,-5.858c10.863,-10.864 119.033,-119.029 120.065,-120.072c3.822,-3.858 5.792,-9.09 5.792,-14.07zm-160,100l-240,0l0,-432l360,0l0,312l-100,0c-11.046,0 -20,8.954 -20,20l0,100zm91.715,-80l-51.715,51.715l0,-51.715l51.715,0z"/>
   <path id="svg_5" d="m256,316l-120,0c-11.046,0 -20,8.954 -20,20s8.954,20 20,20l120,0c11.046,0 20,-8.954 20,-20s-8.954,-20 -20,-20z"/>
   <path id="svg_6" d="m256,396l-120,0c-11.046,0 -20,8.954 -20,20s8.954,20 20,20l120,0c11.046,0 20,-8.954 20,-20s-8.954,-20 -20,-20z"/>
  </g>
  <rect id="svg_9" height="209" width="151" y="71" x="105" stroke-dasharray="5,2,2,2,2,2" stroke-width="0" stroke="#000" fill="#ffffff"/>
  <text transform="matrix(1.09556, 0, 0, 1.30379, 478.681, -25.9798)" stroke-dasharray="5,2,2,2,2,2" font-style="normal" font-weight="bold" xml:space="preserve" text-anchor="start" font-family="'Verdana'" font-size="211" id="svg_7" y="232.3198" x="-344.9006" stroke-width="0" stroke="#000" fill="#000000">E</text>
 </g>
</svg>