<?xml version="1.0" encoding="iso-8859-1"?>
<!-- Generator: Adobe Illustrator 19.0.0, SVG Export Plug-In . SVG Version: 6.00 Build 0)  -->
<svg version="1.1" id="Capa_1" xmlns="http://www.w3.org/2000/svg" xmlns:xlink="http://www.w3.org/1999/xlink" x="0px" y="0px"
	 viewBox="0 0 511.915 511.915" style="enable-background:new 0 0 511.915 511.915;" xml:space="preserve">
<g>
	<g>
		<g>
			<path d="M414.099,94.46c-2.262,0.042-4.415,0.978-5.987,2.604l-36.154,37.438c-3.274,3.39-3.18,8.792,0.208,12.067l24.958,24.104
				c1.591,1.536,3.717,2.395,5.929,2.396h0.15c2.262-0.042,4.415-0.978,5.987-2.604l36.154-37.437
				c3.274-3.39,3.18-8.792-0.208-12.067l-24.958-24.104C418.555,95.274,416.364,94.411,414.099,94.46z M402.845,152.468
				l-12.683-12.246l24.296-25.162l12.683,12.246L402.845,152.468z"/>
			<path d="M506.673,132.151l-56.258-54.325l23.475-24.312c9.1-9.135,10.348-23.477,2.962-34.046
				c-4.521-6.136-11.515-9.969-19.119-10.482c-7.604-0.512-15.048,2.349-20.352,7.823L220.366,241.532l-6.542-6.318
				c-4.872-4.734-11.437-7.32-18.229-7.179c-6.98,0.14-13.604,3.105-18.358,8.217c-4.717,4.883-7.301,11.44-7.183,18.228
				s2.928,13.252,7.813,17.968l6.543,6.319L170,293.687c-44.827-26.866-102.272-19.183-138.464,18.518
				c-43.137,44.753-41.861,115.992,2.851,159.171s115.952,41.971,159.174-2.701c36.412-37.489,42.084-95.166,13.673-139.03
				l14.41-14.921l6.542,6.318c4.727,4.581,11.055,7.138,17.637,7.125c7.164-0.026,14.008-2.972,18.95-8.158
				c4.717-4.884,7.301-11.441,7.183-18.23c-0.118-6.789-2.928-13.253-7.812-17.97l-6.542-6.318l96.605-100.036l56.25,54.325
				c3.257,3.212,7.686,4.952,12.258,4.817c4.563-0.064,8.91-1.95,12.075-5.238l12.05-12.479c6.588-6.842,6.4-17.723-0.421-24.333
				l-6.342-6.125l24.296-25.158l6.338,6.121c6.84,6.592,17.725,6.404,24.333-0.421l12.05-12.479
				C513.682,149.643,513.494,138.761,506.673,132.151z M190.169,322.747c-0.198,0.271-0.379,0.554-0.542,0.848
				c-0.35,0.441-0.655,0.917-0.908,1.421c-0.23,0.49-0.411,1.001-0.541,1.526c-0.303,1.039-0.374,2.131-0.208,3.2
				c0.059,0.53,0.17,1.053,0.332,1.562c0.188,0.542,0.432,1.063,0.728,1.554c0.121,0.306,0.26,0.604,0.418,0.893
				c29.486,39.977,23.419,95.88-13.958,128.6c-37.377,32.72-93.591,31.34-129.317-3.175c-35.736-34.499-39.077-90.626-7.685-129.12
				c31.392-38.494,87.044-46.513,128.026-18.447c0.281,0.14,0.569,0.263,0.865,0.369c0.961,0.545,2.027,0.876,3.128,0.971
				c0.284,0.029,0.556,0.16,0.841,0.16c0.249,0,0.482-0.124,0.73-0.145c0.581-0.053,1.155-0.167,1.711-0.341
				c1.078-0.304,2.074-0.846,2.915-1.585c0.271-0.162,0.531-0.34,0.781-0.533l19.199-19.884l12.681,12.247L190.169,322.747z
				 M252.111,308.555c-3.279,3.377-8.671,3.472-12.067,0.212l-50.321-48.596c-1.634-1.567-2.572-3.724-2.604-5.987
				c-0.009-2.454,1-4.802,2.788-6.483c1.567-1.631,3.721-2.569,5.983-2.604c2.271-0.091,4.475,0.777,6.075,2.392l50.325,48.6
				c1.631,1.567,2.569,3.721,2.604,5.983C254.9,304.524,253.893,306.87,252.111,308.555z M482.569,157.11l-12.475-12.05
				c-1.62-1.586-3.813-2.45-6.079-2.396c-2.262,0.042-4.415,0.978-5.987,2.604l-36.154,37.437c-1.573,1.627-2.435,3.813-2.396,6.077
				c0.039,2.263,0.976,4.418,2.604,5.99l12.483,12.25l-12.25,12.484l-62.392-60.254c-1.66-1.524-3.826-2.378-6.079-2.396
				c-2.262,0.042-4.415,0.978-5.987,2.604L245.325,265.635l-12.682-12.247L449.661,28.664c1.793-1.881,4.339-2.853,6.929-2.646
				c2.624,0.166,5.034,1.501,6.567,3.638c2.443,3.851,1.795,8.896-1.542,12.004l-29.404,30.446
				c-1.573,1.628-2.435,3.813-2.396,6.076s0.976,4.418,2.604,5.99l62.4,60.454L482.569,157.11z"/>
			<path d="M111.19,312.56c-42.758,0.719-76.94,35.776-76.579,78.538c0.361,42.762,35.131,77.237,77.895,77.233
				c0.467,0,0.933,0,1.4-0.009c27.861-0.432,53.369-15.714,66.894-40.076c13.525-24.362,13.006-54.093-1.36-77.968
				C165.074,326.403,139.049,312.02,111.19,312.56z M156.328,432.714c-20.172,20.943-52.33,24.715-76.8,9.008
				c-24.47-15.706-34.433-46.514-23.794-73.575c10.64-27.061,38.917-42.834,67.532-37.668c28.615,5.165,49.593,29.829,50.1,58.902
				C173.648,405.511,167.521,421.095,156.328,432.714z"/>
		</g>
	</g>
</g>
<g>
</g>
<g>
</g>
<g>
</g>
<g>
</g>
<g>
</g>
<g>
</g>
<g>
</g>
<g>
</g>
<g>
</g>
<g>
</g>
<g>
</g>
<g>
</g>
<g>
</g>
<g>
</g>
<g>
</g>
</svg>
