<?xml version="1.0" encoding="iso-8859-1"?>
<!-- Generator: Adobe Illustrator 19.0.0, SVG Export Plug-In . SVG Version: 6.00 Build 0)  -->
<svg version="1.1" id="Capa_1" xmlns="http://www.w3.org/2000/svg" xmlns:xlink="http://www.w3.org/1999/xlink" x="0px" y="0px"
	 viewBox="0 0 512 512" style="enable-background:new 0 0 512 512;" xml:space="preserve">
<g>
	<g>
		<g>
			<path d="M421.331,260.437c3.285-1.899,5.333-5.419,5.333-9.237V32c0-17.643-14.357-32-32-32h-10.667v74.667
				c0,17.643-14.357,32-32,32c-17.643,0-32-14.357-32-32c0-13.888,8.939-25.621,21.333-30.037v30.037
				c0,5.888,4.779,10.667,10.667,10.667c5.888,0,10.667-4.779,10.667-10.667V0h-64v74.667c0,17.643-14.357,32-32,32
				c-17.643,0-32-14.357-32-32c0-13.888,8.939-25.621,21.333-30.037v30.037c0,5.888,4.779,10.667,10.667,10.667
				s10.667-4.779,10.667-10.667V0h-64v74.667c0,17.643-14.357,32-32,32c-17.643,0-32-14.357-32-32
				c0-13.888,8.939-25.621,21.333-30.037v30.037c0,5.888,4.779,10.667,10.667,10.667s10.667-4.779,10.667-10.667V0h-64v74.667
				c0,17.643-14.357,32-32,32c-17.643,0-32-14.357-32-32c0-13.888,8.939-25.621,21.333-30.037v30.037
				c0,5.888,4.779,10.667,10.667,10.667s10.667-4.779,10.667-10.667V0H53.331c-17.643,0-32,14.357-32,32v405.333
				c0,17.643,14.357,32,32,32h170.645c5.888,0,10.667-4.779,10.667-10.667c0-8.427,3.413-16.661,9.365-22.635l170.667-170.667
				C416.403,263.659,418.515,262.101,421.331,260.437z"/>
			<path d="M487.549,323.115l-42.667-42.667c-4.16-4.16-10.923-4.16-15.083,0l-35.115,35.115l57.749,57.749l35.115-35.115
				C491.709,334.037,491.709,327.296,487.549,323.115z"/>
			<path d="M259.112,451.115c-1.984,2.005-3.115,4.715-3.115,7.552v42.667c0,5.888,4.779,10.667,10.667,10.667h42.667
				c2.837,0,5.547-1.131,7.552-3.115l120.448-120.448l-57.749-57.749L259.112,451.115z"/>
		</g>
	</g>
</g>
<g>
</g>
<g>
</g>
<g>
</g>
<g>
</g>
<g>
</g>
<g>
</g>
<g>
</g>
<g>
</g>
<g>
</g>
<g>
</g>
<g>
</g>
<g>
</g>
<g>
</g>
<g>
</g>
<g>
</g>
</svg>
