<?xml version="1.0" encoding="iso-8859-1"?>
<!-- Generator: Adobe Illustrator 19.0.0, SVG Export Plug-In . SVG Version: 6.00 Build 0)  -->
<svg version="1.1" id="Capa_1" xmlns="http://www.w3.org/2000/svg" xmlns:xlink="http://www.w3.org/1999/xlink" x="0px" y="0px"
	 viewBox="0 0 503.787 503.787" style="enable-background:new 0 0 503.787 503.787;" xml:space="preserve">
<g>
	<path style="fill:#F6AB27;" d="M501.116,132.122L437.68,70.769l29.852-30.894c6.383-6.197,7.373-16.092,2.343-23.431
		c-3.086-4.196-7.858-6.825-13.053-7.193c-5.195-0.368-10.29,1.564-13.936,5.284L216.218,249.362l-12.93-12.496
		c-6.924-6.605-17.872-6.411-24.559,0.434l-0.347,0.434c-3.213,3.307-4.973,7.759-4.892,12.37c0.081,4.61,1.998,8.997,5.326,12.189
		l12.843,12.409l-25.513,26.468C120.723,269.921,58.932,278.693,24,321.349c-34.932,42.656-31.349,104.964,8.242,143.334
		s101.98,40.002,143.522,3.752s48.376-98.285,15.721-142.708l25.6-26.468l12.93,12.41c3.29,3.212,7.729,4.974,12.327,4.892
		c4.597-0.082,8.971-2,12.145-5.326l0.434-0.347c6.649-6.907,6.455-17.891-0.434-24.559l-12.93-12.496l110.297-114.202
		l63.523,61.266c1.668,1.623,3.913,2.517,6.241,2.484c2.327-0.033,4.546-0.989,6.169-2.658l12.236-12.757
		c1.623-1.668,2.516-3.913,2.484-6.241c-0.033-2.327-0.988-4.546-2.657-6.169l-12.67-12.236l36.708-38.096l12.757,12.236
		c1.668,1.623,3.913,2.517,6.241,2.485c2.327-0.033,4.547-0.989,6.169-2.658l12.323-12.757
		C504.689,141.017,504.573,135.496,501.116,132.122z M157.121,437.5c-19.817,20.537-50.056,27.112-76.611,16.657
		s-44.196-35.88-44.692-64.415s16.248-54.559,42.423-65.932s56.625-5.855,77.144,13.98
		C183.36,364.862,184.137,409.471,157.121,437.5z M401.753,158.764l-25.34-24.472l36.708-38.096l25.426,24.472L401.753,158.764z"/>
	<path style="fill:#F6AB27;" d="M254.922,310.889l-0.434,0.347c-3.174,3.327-7.548,5.245-12.145,5.326
		c-4.597,0.082-9.036-1.68-12.327-4.892l-12.93-12.41l-25.426-24.559l-12.843-12.409c-3.327-3.192-5.244-7.579-5.326-12.189
		c-0.081-4.61,1.679-9.062,4.892-12.37l0.347-0.434c6.686-6.845,17.635-7.038,24.559-0.434l12.93,12.496l25.34,24.472l12.93,12.496
		C261.377,292.997,261.571,303.982,254.922,310.889z"/>
</g>
<g>
</g>
<g>
</g>
<g>
</g>
<g>
</g>
<g>
</g>
<g>
</g>
<g>
</g>
<g>
</g>
<g>
</g>
<g>
</g>
<g>
</g>
<g>
</g>
<g>
</g>
<g>
</g>
<g>
</g>
</svg>
